<svg width="244" height="300" viewBox="0 0 244 300" fill="none" xmlns="http://www.w3.org/2000/svg">
<path d="M123.662 300C62.4959 300 21.4968 269.906 0 241.819L78 193.5C118.423 232.02 142.714 207.544 160 193.5L244 245.162C223.833 274.587 174.191 300 123.662 300Z" fill="#214A88"/>
<path d="M78 153.975V193.479L66.5 200.5C83.6667 220.833 128.6 249.3 171 200.5L160.225 193.479L162 152L78 153.975Z" fill="#CE9E83"/>
<path d="M69 199C67.8 198.6 66.8333 199.833 66.5 200.5C111 250 155.833 220.833 171 200.5C171 199.5 169.5 198.5 168.5 199C116.5 256 70.5 199.5 69 199Z" fill="#446BB6"/>
<g filter="url(#filter0_f)">
<path d="M78 164.5V172C101.5 191 114.453 195.539 122 195C129 194.5 160.5 184.014 160.5 181C160.5 178 161 171 161 171L134 184C130.793 182.942 121 183 121 183L78 164.5Z" fill="#3D4145" fill-opacity="0.2"/>
<path d="M78 164.5V172C101.5 191 114.453 195.539 122 195C129 194.5 160.5 184.014 160.5 181C160.5 178 161 171 161 171L134 184C130.793 182.942 121 183 121 183L78 164.5Z" stroke="#3D4145"/>
</g>
<path d="M198.559 100.35C201.265 89.6653 190.892 86.549 184.353 94.3398L183 115.709C192.806 117.712 194.5 109.031 198.559 100.35Z" fill="#D1A084"/>
<path d="M42.4742 104.135C39.8156 93.2182 48.9164 89.2237 55.3414 97.1836L58.5 119.5C48.8658 121.547 46.4621 113.004 42.4742 104.135Z" fill="#D1A084"/>
<path d="M47.5 100C49.3333 98.8333 53.1 97.8 53.5 103C51.3333 104.333 48.5 107.6 54.5 110C56 110.6 57.9 113.9 53.5 115.5" stroke="#9B6F5F"/>
<path d="M191.581 94.8784C189.528 94.1662 185.624 94.03 186.435 99.1819C188.851 99.9793 192.362 102.504 187.077 106.224C185.756 107.154 184.669 110.803 189.32 111.345" stroke="#9B6F5F"/>
<path d="M54.3219 93.5953L50 47C50 46.5 126.002 31 129.335 31C186 31 186 32.329 186 41.6277V41.6452L185.153 89.2433C184.405 131.292 172.031 183.297 130.12 186.785C123.514 187.335 117.056 186.806 110.859 185.48C72.2063 177.208 58.0188 132.95 54.3219 93.5953Z" fill="#DEB294"/>
<g filter="url(#filter1_b)">
<path d="M122.151 0C79.395 3.70352 56.2353 32.8913 50 47C78.7269 45.6773 80.063 56.2143 119.479 54.8916C151.012 53.8334 190.294 37.6966 209 40.342C203.655 32.4058 167.357 19.62 160.231 16.5337L178.937 3.96806C175.73 2.90991 131.504 4.84985 114.803 7.93612L122.151 0Z" fill="#3D4145"/>
</g>
<g filter="url(#filter2_d)">
<path d="M165 82.9707C164.479 77.758 154.802 72.5452 150.029 70.5904C138.052 65.8989 132.454 68.6356 131.152 70.5904C129.589 75.2819 140.482 79.4956 146.123 81.0159C157.189 83.9983 164.132 84.9255 165 82.9707Z" fill="#3D4145"/>
</g>
<g filter="url(#filter3_d)">
<path d="M77 84.9064C77.5361 79.3678 87.4978 73.8293 92.4117 71.7523C104.741 66.7676 110.504 69.6754 111.844 71.7523C113.452 76.737 102.239 81.214 96.4322 82.8294C85.0409 85.9981 77.8934 86.9834 77 84.9064Z" fill="#3D4145"/>
</g>
<path fill-rule="evenodd" clip-rule="evenodd" d="M119 98L116.19 129.095C118.195 130.924 123.926 133.538 131.5 129C123.3 133.912 117.473 131.797 115.313 129.64L115.144 129.472L119 98Z" fill="#9B6F5F"/>
<path d="M102 96C102 98.7614 100.657 101 99 101C97.3431 101 96 98.7614 96 96C96 93.2386 97.3431 91 99 91C100.657 91 102 93.2386 102 96Z" fill="#3D4145"/>
<path d="M143 96C143 98.7614 141.657 101 140 101C138.343 101 137 98.7614 137 96C137 93.2386 138.343 91 140 91C141.657 91 143 93.2386 143 96Z" fill="#3D4145"/>
<path d="M144 146.5H113.5C113.5 162.5 124.5 164.5 129 164.5C140.5 164 144.5 152.667 144 146.5Z" fill="#4B4141"/>
<path d="M142.5 154.5C136.5 153 124.2 152.7 123 163.5C128 165.5 138.5 165.3 142.5 154.5Z" fill="#EA1F5F"/>
<mask id="mask0" mask-type="alpha" maskUnits="userSpaceOnUse" x="50" y="31" width="136" height="156">
<path d="M54.3219 93.5953L50.0043 47.6331C49.3379 38.3185 126.002 31 129.335 31C186 31 186 32.329 186 41.6277V41.6452L185.153 89.2433C184.405 131.292 172.031 183.297 130.121 186.785C123.514 187.335 117.056 186.806 110.859 185.48C72.2064 177.209 58.0189 132.95 54.3219 93.5953Z" fill="#DEB294"/>
</mask>
<g mask="url(#mask0)">
<path d="M59.431 94L54.1018 92.6667C52.1032 62.6667 49.3338 51 50 47L186 40L185.334 94.6667L182.003 96C176.141 56 167.57 46 164.017 46C122.982 59.8667 87.4095 52.6667 74.7526 47.3333C61.4295 49.4667 58.9869 79.3333 59.431 94Z" fill="url(#paint0_linear)"/>
<g filter="url(#filter4_f)">
<path d="M122.151 7C79.395 10.7035 56.2353 39.8913 50 54C78.7269 52.6773 80.063 63.2143 119.479 61.8916C151.012 60.8334 190.294 44.6966 209 47.342C203.655 39.4058 167.357 26.62 160.231 23.5337L178.937 10.9681C175.73 9.90991 131.504 11.8499 114.803 14.9361L122.151 7Z" fill="#3D4145" fill-opacity="0.2"/>
<path d="M122.151 7C79.395 10.7035 56.2353 39.8913 50 54C78.7269 52.6773 80.063 63.2143 119.479 61.8916C151.012 60.8334 190.294 44.6966 209 47.342C203.655 39.4058 167.357 26.62 160.231 23.5337L178.937 10.9681C175.73 9.90991 131.504 11.8499 114.803 14.9361L122.151 7Z" stroke="#3D4145"/>
</g>
</g>
<defs>
<filter id="filter0_f" x="68" y="154.5" width="103" height="50.5416" filterUnits="userSpaceOnUse" color-interpolation-filters="sRGB">
<feFlood flood-opacity="0" result="BackgroundImageFix"/>
<feBlend mode="normal" in="SourceGraphic" in2="BackgroundImageFix" result="shape"/>
<feGaussianBlur stdDeviation="5" result="effect1_foregroundBlur"/>
</filter>
<filter id="filter1_b" x="46" y="-4" width="167" height="63.0067" filterUnits="userSpaceOnUse" color-interpolation-filters="sRGB">
<feFlood flood-opacity="0" result="BackgroundImageFix"/>
<feGaussianBlur in="BackgroundImage" stdDeviation="2"/>
<feComposite in2="SourceAlpha" operator="in" result="effect1_backgroundBlur"/>
<feBlend mode="normal" in="SourceGraphic" in2="effect1_backgroundBlur" result="shape"/>
</filter>
<filter id="filter2_d" x="121" y="62" width="54" height="36" filterUnits="userSpaceOnUse" color-interpolation-filters="sRGB">
<feFlood flood-opacity="0" result="BackgroundImageFix"/>
<feColorMatrix in="SourceAlpha" type="matrix" values="0 0 0 0 0 0 0 0 0 0 0 0 0 0 0 0 0 0 127 0"/>
<feOffset dy="4"/>
<feGaussianBlur stdDeviation="5"/>
<feColorMatrix type="matrix" values="0 0 0 0 0 0 0 0 0 0 0 0 0 0 0 0 0 0 0.25 0"/>
<feBlend mode="normal" in2="BackgroundImageFix" result="effect1_dropShadow"/>
<feBlend mode="normal" in="SourceGraphic" in2="effect1_dropShadow" result="shape"/>
</filter>
<filter id="filter3_d" x="68" y="63" width="55" height="37" filterUnits="userSpaceOnUse" color-interpolation-filters="sRGB">
<feFlood flood-opacity="0" result="BackgroundImageFix"/>
<feColorMatrix in="SourceAlpha" type="matrix" values="0 0 0 0 0 0 0 0 0 0 0 0 0 0 0 0 0 0 127 0"/>
<feOffset dx="1" dy="4"/>
<feGaussianBlur stdDeviation="5"/>
<feColorMatrix type="matrix" values="0 0 0 0 0 0 0 0 0 0 0 0 0 0 0 0 0 0 0.25 0"/>
<feBlend mode="normal" in2="BackgroundImageFix" result="effect1_dropShadow"/>
<feBlend mode="normal" in="SourceGraphic" in2="effect1_dropShadow" result="shape"/>
</filter>
<filter id="filter4_f" x="40" y="-3" width="179" height="75.0067" filterUnits="userSpaceOnUse" color-interpolation-filters="sRGB">
<feFlood flood-opacity="0" result="BackgroundImageFix"/>
<feBlend mode="normal" in="SourceGraphic" in2="BackgroundImageFix" result="shape"/>
<feGaussianBlur stdDeviation="5" result="effect1_foregroundBlur"/>
</filter>
<linearGradient id="paint0_linear" x1="118.195" y1="40" x2="118.195" y2="96" gradientUnits="userSpaceOnUse">
<stop stop-color="#3D4145"/>
<stop offset="1" stop-color="#3D4145" stop-opacity="0"/>
</linearGradient>
</defs>
</svg>
