<svg width="244" height="213" viewBox="0 0 244 213" fill="none" xmlns="http://www.w3.org/2000/svg">
<path fill-rule="evenodd" clip-rule="evenodd" d="M74 158V165H58H49L29 175.5L0 191.5V213H207V208V158H74ZM149 163H88.5V171.5H149V163ZM201 163H196.5V206H201V163ZM7 191.5H128.5L160 175.5H38L7 191.5ZM128.5 208H7V196H128.5V208Z" fill="#C4C4C4"/>
<path fill-rule="evenodd" clip-rule="evenodd" d="M54 17V138C54 150.5 64.5 155 75 155H173C177.8 155 178 151.469 178 147.03V9.00005C178 3.98547 173 2.7166e-07 170 0H71C61.6112 0 54 7.61116 54 17ZM58 17C58 11 62.5 4 71 4H152C166 4 166 14.5 166 20.0001V137C166 149 159 151 152 151H75C61.4 151 57.8333 142.823 58 138V17Z" fill="#C4C4C4"/>
<path d="M121 125H154C154.552 125 155 125.448 155 126V128C155 128.552 154.552 129 154 129H121C120.448 129 120 128.552 120 128V126C120 125.448 120.448 125 121 125Z" fill="#C4C4C4"/>
<path d="M76 131H82C83.1046 131 84 131.895 84 133V139C84 140.105 83.1046 141 82 141H76C74.8954 141 74 140.105 74 139V133C74 131.895 74.8954 131 76 131Z" fill="#C4C4C4"/>
<path fill-rule="evenodd" clip-rule="evenodd" d="M162 20.0001C162 13.9249 158.075 8 152 8H71C64.9249 8 62 10.9249 62 17V97C62 101 62.5 105 71 105H152C154.5 105 162 105 162 97V20.0001Z" fill="#C4C4C4"/>
<path fill-rule="evenodd" clip-rule="evenodd" d="M241.064 45.4541L218.956 8.73169C215.881 3.62359 210.462 7.26394e-05 204.5 7.26394e-05L176.5 5.88596e-07C179.5 8.30833e-06 184.5 4 184.5 8.99996V147.03C184.5 151.469 183.71 154.965 179.582 155H208.5C212.525 155 215.685 154.072 218.756 151.469L237.491 135.592C241.302 132.362 243.5 127.619 243.5 122.623V54.2224C243.5 51.1326 242.658 48.1012 241.064 45.4541ZM202 130V101C202 99.8954 201.105 99 200 99C198.895 99 198 99.8954 198 101V130C198 131.105 198.895 132 200 132C201.105 132 202 131.105 202 130ZM209 126V97C209 95.8954 208.105 95 207 95C205.895 95 205 95.8954 205 97V126C205 127.105 205.895 128 207 128C208.105 128 209 127.105 209 126ZM216 130V101C216 99.8954 215.105 99 214 99C212.895 99 212 99.8954 212 101V130C212 131.105 212.895 132 214 132C215.105 132 216 131.105 216 130Z" fill="#C4C4C4"/>
</svg>
