<svg width="135" height="136" viewBox="0 0 135 136" fill="none" xmlns="http://www.w3.org/2000/svg">
<path d="M120.536 0.625H14.4643C10.6281 0.625 6.94907 2.14609 4.23649 4.85365C1.52391 7.5612 0 11.2334 0 15.0625L0 120.938C0 124.767 1.52391 128.439 4.23649 131.146C6.94907 133.854 10.6281 135.375 14.4643 135.375H55.8231V89.563H36.8387V68H55.8231V51.5653C55.8231 32.8718 66.9727 22.5459 84.0496 22.5459C92.2279 22.5459 100.78 24.0017 100.78 24.0017V42.3494H91.357C82.0728 42.3494 79.1769 48.1003 79.1769 53.9986V68H99.903L96.5883 89.563H79.1769V135.375H120.536C124.372 135.375 128.051 133.854 130.764 131.146C133.476 128.439 135 124.767 135 120.938V15.0625C135 11.2334 133.476 7.5612 130.764 4.85365C128.051 2.14609 124.372 0.625 120.536 0.625Z" fill="#3D453B"/>
</svg>
