<svg width="142" height="140" viewBox="0 0 142 140" fill="none" xmlns="http://www.w3.org/2000/svg">
<path d="M47.4956 112.097C47.4956 112.671 46.8371 113.131 46.0069 113.131C45.0621 113.217 44.4036 112.758 44.4036 112.097C44.4036 111.523 45.0621 111.064 45.8923 111.064C46.7512 110.978 47.4956 111.437 47.4956 112.097ZM38.5919 110.805C38.3915 111.379 38.9641 112.04 39.823 112.212C40.5673 112.499 41.4262 112.212 41.598 111.638C41.7698 111.064 41.2258 110.403 40.3669 110.145C39.6226 109.944 38.7923 110.231 38.5919 110.805ZM51.246 110.317C50.4157 110.518 49.8431 111.064 49.929 111.724C50.0149 112.298 50.7593 112.671 51.6181 112.471C52.4484 112.27 53.021 111.724 52.9351 111.15C52.8492 110.604 52.0762 110.231 51.246 110.317ZM70.0839 0.296875C30.3754 0.296875 0 30.5295 0 70.3516C0 102.192 19.9831 129.439 48.5262 139.028C52.1907 139.688 53.479 137.42 53.479 135.554C53.479 133.774 53.3931 123.955 53.3931 117.926C53.3931 117.926 33.3528 122.232 29.1444 109.37C29.1444 109.37 25.8806 101.015 21.1855 98.8615C21.1855 98.8615 14.6294 94.3539 21.6435 94.44C21.6435 94.44 28.7722 95.0143 32.6944 101.847C38.9641 112.93 49.471 109.743 53.5649 107.848C54.2234 103.254 56.0843 100.067 58.1456 98.1725C42.1419 96.3924 25.9952 94.0668 25.9952 66.4469C25.9952 58.5514 28.171 54.5893 32.7516 49.5361C32.0073 47.6699 29.5738 39.9754 33.496 30.0414C39.4794 28.1752 53.25 37.7934 53.25 37.7934C58.9758 36.1855 65.1311 35.3529 71.229 35.3529C77.327 35.3529 83.4823 36.1855 89.2081 37.7934C89.2081 37.7934 102.979 28.1465 108.962 30.0414C112.884 40.0041 110.451 47.6699 109.706 49.5361C114.287 54.618 117.093 58.5801 117.093 66.4469C117.093 94.1529 100.23 96.3637 84.2266 98.1725C86.8605 100.441 89.0936 104.747 89.0936 111.494C89.0936 121.17 89.0077 133.142 89.0077 135.497C89.0077 137.363 90.3246 139.631 93.9605 138.971C122.59 129.439 142 102.192 142 70.3516C142 30.5295 109.792 0.296875 70.0839 0.296875ZM27.8274 99.3209C27.4552 99.608 27.5411 100.268 28.0278 100.814C28.4859 101.273 29.1444 101.474 29.5165 101.101C29.8887 100.814 29.8028 100.154 29.3161 99.608C28.8581 99.1486 28.1996 98.9477 27.8274 99.3209ZM24.7355 96.9953C24.5351 97.3686 24.8214 97.8279 25.3939 98.115C25.852 98.4022 26.4246 98.316 26.625 97.9141C26.8254 97.5408 26.5391 97.0814 25.9665 96.7943C25.3939 96.6221 24.9359 96.7082 24.7355 96.9953ZM34.0113 107.216C33.5532 107.59 33.725 108.451 34.3835 108.996C35.0419 109.657 35.8722 109.743 36.2444 109.284C36.6165 108.91 36.4448 108.049 35.8722 107.504C35.2423 106.843 34.3835 106.757 34.0113 107.216ZM30.7476 102.996C30.2895 103.283 30.2895 104.029 30.7476 104.69C31.2056 105.35 31.9786 105.637 32.3508 105.35C32.8089 104.977 32.8089 104.23 32.3508 103.57C31.95 102.91 31.2056 102.623 30.7476 102.996Z" fill="#3D453B"/>
</svg>
