<svg width="137" height="139" viewBox="0 0 137 139" fill="none" xmlns="http://www.w3.org/2000/svg">
<path d="M127.214 0.8125H9.75513C4.37299 0.8125 0 5.25879 0 10.717V128.283C0 133.741 4.37299 138.188 9.75513 138.188H127.214C132.596 138.188 137 133.741 137 128.283V10.717C137 5.25879 132.596 0.8125 127.214 0.8125ZM41.4058 118.562H21.1004V53.0027H41.4364V118.562H41.4058ZM31.2531 44.0488C24.7395 44.0488 19.4797 38.7439 19.4797 32.2432C19.4797 25.7424 24.7395 20.4375 31.2531 20.4375C37.7362 20.4375 43.0266 25.7424 43.0266 32.2432C43.0266 38.7746 37.7667 44.0488 31.2531 44.0488ZM117.52 118.562H97.215V86.6719C97.215 79.0672 97.062 69.2854 86.6647 69.2854C76.0839 69.2854 74.4632 77.5647 74.4632 86.1199V118.562H54.1578V53.0027H73.6375V61.9566H73.9127C76.6344 56.8051 83.2703 51.3775 93.1478 51.3775C113.698 51.3775 117.52 64.9617 117.52 82.6242V118.562Z" fill="#3D453B"/>
</svg>
