<svg width="95" height="127" viewBox="0 0 95 127" fill="none" xmlns="http://www.w3.org/2000/svg">
<path d="M45.0013 63.5248C43.7643 59.5561 43.7891 51.8914 44.5065 51.8914C46.5846 51.8914 46.3867 61.0443 45.0013 63.5248ZM44.5807 75.2326C42.6758 80.2432 40.3008 85.973 37.5547 90.7852C42.082 89.0488 47.2031 86.5188 53.1159 85.3529C49.974 82.9717 46.9557 79.5486 44.5807 75.2326ZM21.3008 106.189C21.3008 106.387 24.5664 104.849 29.9349 96.2174C28.2773 97.7801 22.7357 102.295 21.3008 106.189ZM61.3542 39.6875H95V121.047C95 124.346 92.3529 127 89.0625 127H5.9375C2.64714 127 0 124.346 0 121.047V5.95312C0 2.6541 2.64714 0 5.9375 0H55.4167V33.7344C55.4167 37.0086 58.0885 39.6875 61.3542 39.6875ZM59.375 82.3019C54.4271 79.2758 51.1367 75.1086 48.8112 68.957C49.9245 64.3682 51.681 57.398 50.3451 53.0324C49.1823 45.7398 39.8555 46.4592 38.5195 51.3457C37.2826 55.885 38.4206 62.2846 40.5234 70.4453C37.6536 77.2914 33.4232 86.4691 30.4297 91.7277C30.4049 91.7277 30.4049 91.7525 30.3802 91.7525C23.6758 95.2004 12.1719 102.791 16.8971 108.62C18.2826 110.331 20.8555 111.1 22.2161 111.1C26.6445 111.1 31.0482 106.635 37.332 95.7709C43.7148 93.6625 50.7161 91.0332 56.8763 90.0162C62.2448 92.9432 68.5286 94.8531 72.7096 94.8531C79.9336 94.8531 80.4284 86.9156 77.5833 84.0879C74.1445 80.7145 64.1497 81.6818 59.375 82.3019ZM93.2682 26.0449L69.0234 1.73633C67.9102 0.620117 66.401 0 64.8177 0H63.3333V31.75H95V30.2369C95 28.6742 94.3815 27.1611 93.2682 26.0449ZM74.9362 89.3713C75.9505 88.7016 74.3177 86.4195 64.3477 87.1389C73.526 91.058 74.9362 89.3713 74.9362 89.3713Z" fill="#3D453B"/>
</svg>
