<svg width="208" height="207" viewBox="0 0 208 207" fill="none" xmlns="http://www.w3.org/2000/svg">
<path fill-rule="evenodd" clip-rule="evenodd" d="M202.287 1L207.392 6.46827L200.622 12.7892L198.868 12.477L196.785 14.4219L196.751 15.4289L194.928 17.1307L194.181 16.8531L170.746 38.7333L172.448 40.5561L173.75 39.3405L178.126 44.0276L176.043 45.9725L178.96 49.0972L177.918 50.0697L175.661 49.7402L137.123 85.721C128.359 88.4449 126.18 93.6631 126.186 95.9318L132.443 133.954L116.819 148.541C110.865 153.126 99.5577 137.413 99.905 127.292C100.199 118.733 95.4879 118.907 92.6116 119.48L81.6751 129.691C77.3004 133.776 80.7449 139.657 83.014 142.088C75.8807 148.748 75.1127 158.362 74.6555 164.084C74.4619 166.508 74.324 168.234 73.7816 168.74C72.3234 170.102 64.0291 164.037 61.6617 162.023L43.6945 178.798C36.362 186.814 41.0234 195.426 44.2707 198.73C41.7855 202.178 40.0546 203.759 36.4589 206.023C29.8738 198.135 21.7972 192.581 19.0768 191.06C13.9233 188.463 7.58752 183.104 5.06382 180.749C1.92432 178.221 1.04648 175.402 1 174.308L60.8906 118.392L65.2297 109.467L55.4545 107.871L49.1335 101.101L51.4771 98.913L48.8028 96.0486L50.3652 94.5899L53.0395 97.4543L55.9038 94.78L55.6952 93.5126L80.4327 70.4168L81.9432 70.4686L82.9848 69.4962L81.0398 67.413L84.6854 64.0094L86.8734 66.353L88.1754 65.1374L86.2304 63.0542L88.0532 61.3525L90.3276 61.1785L91.057 61.9596L100.171 53.4507L105.519 59.1793L103.957 60.638L124.948 58.5858L142.134 42.5403L162.29 35.4185C164.554 34.0847 166.763 34.8159 167.585 35.3482L191.021 13.4679L190.795 12.704L192.618 11.0022L193.625 11.0368L195.708 9.09188L195.517 7.32096L202.287 1ZM101.353 63.0691L87.5348 76.4577L87.9865 77.9855L62.9887 101.324L61.4954 100.769L59.6726 102.471L61.6176 104.554L70.8893 106.132L73.8066 109.257L102.45 82.5147L101.234 81.2127L102.016 80.4834L100.314 78.6606L97.189 81.578L95.6785 81.5261L94.463 80.2242L96.6498 75.2582L106.284 66.263L110.087 65.6373L111.302 66.9393L103.178 75.9864L103.664 76.5071L116.944 64.1083C117.662 62.7887 115.548 60.7333 101.353 63.0691ZM44.366 144.542L60.7708 129.226C61.9213 128.152 63.7248 128.214 64.7989 129.364C65.873 130.515 65.8112 132.318 64.6607 133.392L48.2558 148.708C47.1054 149.783 45.3019 149.721 44.2278 148.57C43.1536 147.42 43.2155 145.616 44.366 144.542ZM122.443 138.904C116.707 141.53 111.832 124.929 110.112 116.3C109.51 115.327 112.251 112.064 113.584 110.622C113.726 110.469 113.669 110.517 113.567 110.615C109.041 108.677 107.965 106.169 107.975 105.137L110.579 102.706C115.467 95.4127 121.389 98.6237 123.739 101.141L127.788 122.704C130.164 129.843 128.86 133.075 127.911 133.799L122.443 138.904ZM144.756 46.9152L142.152 49.3463C141.864 49.6148 141.849 50.0657 142.117 50.3533L142.604 50.8741C142.872 51.1617 143.323 51.1772 143.611 50.9087L146.215 48.4775C146.502 48.209 146.518 47.7581 146.249 47.4705L145.763 46.9497C145.494 46.6621 145.044 46.6466 144.756 46.9152ZM136.423 54.6948L139.027 52.2637C139.315 51.9951 139.766 52.0106 140.034 52.2982L140.521 52.819C140.789 53.1066 140.774 53.5575 140.486 53.826L137.882 56.2572C137.594 56.5257 137.144 56.5102 136.875 56.2226L136.389 55.7018C136.12 55.4142 136.136 54.9633 136.423 54.6948ZM133.299 57.6122L130.695 60.0433C130.407 60.3119 130.392 60.7627 130.66 61.0503L131.146 61.5711C131.415 61.8587 131.866 61.8742 132.153 61.6057L134.757 59.1745C135.045 58.906 135.06 58.4551 134.792 58.1675L134.306 57.6467C134.037 57.3591 133.586 57.3436 133.299 57.6122ZM124.966 65.3918L127.57 62.9607C127.858 62.6921 128.308 62.7076 128.577 62.9952L129.063 63.516C129.332 63.8037 129.316 64.2545 129.029 64.523L126.425 66.9542C126.137 67.2227 125.686 67.2073 125.418 66.9196L124.931 66.3988C124.663 66.1112 124.678 65.6604 124.966 65.3918Z" fill="white"/>
<path d="M110.579 102.706C115.467 95.4127 121.389 98.6237 123.739 101.141L127.788 122.704C130.164 129.843 128.86 133.075 127.911 133.799L122.443 138.904C116.707 141.53 111.832 124.929 110.112 116.3C109.51 115.327 112.251 112.064 113.584 110.622M110.579 102.706C110.689 104.39 112.3 107.559 116.315 108.1L113.584 110.622M110.579 102.706L107.975 105.137C107.965 106.169 109.041 108.677 113.567 110.615M113.584 110.622L113.323 110.865C113.145 111.032 113.41 110.765 113.567 110.615M113.584 110.622C113.726 110.469 113.669 110.517 113.567 110.615M113.584 110.622C113.578 110.62 113.572 110.617 113.567 110.615M202.287 1L195.517 7.32096L195.708 9.09188L193.625 11.0368L192.618 11.0022L190.795 12.704L191.021 13.4679L167.585 35.3482C166.763 34.8159 164.554 34.0847 162.29 35.4185L142.134 42.5403L124.948 58.5858L103.957 60.638L105.519 59.1793L100.171 53.4507L91.057 61.9596L90.3276 61.1785L88.0532 61.3525L86.2304 63.0542L88.1754 65.1374L86.8734 66.353L84.6854 64.0094L81.0398 67.413L82.9848 69.4962L81.9432 70.4686L80.4327 70.4168L55.6952 93.5126L55.9038 94.78L53.0395 97.4543L50.3652 94.5899L48.8028 96.0486L51.4771 98.913L49.1335 101.101L55.4545 107.871L65.2297 109.467L60.8906 118.392L1 174.308C1.04648 175.402 1.92432 178.221 5.06382 180.749C7.58752 183.104 13.9233 188.463 19.0768 191.06C21.7972 192.581 29.8738 198.135 36.4589 206.023C40.0546 203.759 41.7855 202.178 44.2707 198.73C41.0234 195.426 36.362 186.814 43.6945 178.798L61.6617 162.023C64.0291 164.037 72.3234 170.102 73.7816 168.74C74.324 168.234 74.4619 166.508 74.6555 164.084C75.1127 158.362 75.8807 148.748 83.014 142.088C80.7449 139.657 77.3004 133.776 81.6751 129.691L92.6116 119.48C95.4879 118.907 100.199 118.733 99.905 127.292C99.5577 137.413 110.865 153.126 116.819 148.541L132.443 133.954L126.186 95.9318C126.18 93.6631 128.359 88.4449 137.123 85.721L175.661 49.7402L177.918 50.0697L178.96 49.0972L176.043 45.9725L178.126 44.0276L173.75 39.3405L172.448 40.5561L170.746 38.7333L194.181 16.8531L194.928 17.1307L196.751 15.4289L196.785 14.4219L198.868 12.477L200.622 12.7892L207.392 6.46827L202.287 1ZM101.353 63.0691L87.5348 76.4577L87.9865 77.9855L62.9887 101.324L61.4954 100.769L59.6726 102.471L61.6176 104.554L70.8893 106.132L73.8066 109.257L102.45 82.5147L101.234 81.2127L102.016 80.4834L100.314 78.6606L97.189 81.578L95.6785 81.5261L94.463 80.2242L96.6498 75.2582L106.284 66.263L110.087 65.6373L111.302 66.9393L103.178 75.9864L103.664 76.5071L116.944 64.1083C117.662 62.7887 115.548 60.7333 101.353 63.0691ZM144.756 46.9152L142.152 49.3463C141.864 49.6148 141.849 50.0657 142.117 50.3533L142.604 50.8741C142.872 51.1617 143.323 51.1772 143.611 50.9087L146.215 48.4775C146.502 48.209 146.518 47.7581 146.249 47.4705L145.763 46.9497C145.494 46.6621 145.044 46.6466 144.756 46.9152ZM139.027 52.2637L136.423 54.6948C136.136 54.9633 136.12 55.4142 136.389 55.7018L136.875 56.2226C137.144 56.5102 137.594 56.5257 137.882 56.2572L140.486 53.826C140.774 53.5575 140.789 53.1066 140.521 52.819L140.034 52.2982C139.766 52.0106 139.315 51.9951 139.027 52.2637ZM133.299 57.6122L130.695 60.0433C130.407 60.3119 130.392 60.7627 130.66 61.0503L131.146 61.5711C131.415 61.8587 131.866 61.8742 132.153 61.6057L134.757 59.1745C135.045 58.906 135.06 58.4551 134.792 58.1675L134.306 57.6467C134.037 57.3591 133.586 57.3436 133.299 57.6122ZM127.57 62.9607L124.966 65.3918C124.678 65.6604 124.663 66.1112 124.931 66.3988L125.418 66.9196C125.686 67.2073 126.137 67.2227 126.425 66.9542L129.029 64.523C129.316 64.2545 129.332 63.8037 129.063 63.516L128.577 62.9952C128.308 62.7076 127.858 62.6921 127.57 62.9607ZM60.7708 129.226L44.366 144.542C43.2155 145.616 43.1536 147.42 44.2278 148.57C45.3019 149.721 47.1054 149.783 48.2558 148.708L64.6607 133.392C65.8112 132.318 65.873 130.515 64.7989 129.364C63.7248 128.214 61.9213 128.152 60.7708 129.226Z" stroke="white" stroke-width="0.5"/>
<path d="M91.939 149.438C95.041 152.829 115.47 161.368 125.297 165.214C125.926 164.475 126.931 164.394 126.844 165.596L119.142 186.176C118.385 187.065 117.612 186.874 117.595 185.795C110.452 184.952 90.0833 173.594 80.792 168.021L86.1644 156.218L89.0971 154.973L91.939 149.438Z" fill="white"/>
</svg>
