<svg width="356" height="343" viewBox="0 0 356 343" fill="none" xmlns="http://www.w3.org/2000/svg">
<path fill-rule="evenodd" clip-rule="evenodd" d="M307.665 36.1817L314.831 43.8566L305.328 52.7283L302.867 52.2901L299.943 55.0198L299.895 56.4332L297.336 58.8217L296.288 58.432L263.396 89.1417L265.785 91.7L267.612 89.9939L273.754 96.5724L270.83 99.3022L274.925 103.688L273.463 105.053L270.295 104.59L216.205 155.091C203.904 158.914 200.847 166.238 200.855 169.422L209.637 222.787L187.708 243.261C179.351 249.695 163.481 227.642 163.968 213.437C164.381 201.424 157.769 201.668 153.732 202.473L138.382 216.804C132.242 222.537 137.077 230.792 140.261 234.203C130.249 243.551 129.171 257.045 128.53 265.076C128.258 268.478 128.065 270.9 127.303 271.611C125.257 273.522 113.615 265.009 110.293 262.183L85.075 285.727C74.7836 296.977 81.3261 309.065 85.8837 313.702C82.3957 318.541 79.9663 320.76 74.9196 323.939C65.6772 312.867 54.3414 305.073 50.5233 302.937C43.2901 299.293 34.3976 291.771 30.8555 288.465C26.4491 284.918 25.217 280.961 25.1518 279.426L109.21 200.945L115.3 188.419L101.581 186.179L92.7089 176.677L95.9982 173.606L92.2447 169.586L94.4376 167.538L98.191 171.559L102.211 167.805L101.918 166.026L136.638 133.611L138.758 133.683L140.22 132.318L137.49 129.395L142.607 124.618L145.678 127.907L147.505 126.201L144.776 123.277L147.334 120.888L150.526 120.644L151.55 121.741L164.341 109.798L171.848 117.838L169.655 119.886L199.116 117.005L223.238 94.485L251.528 84.4893C254.705 82.6172 257.807 83.6435 258.96 84.3906L291.853 53.6809L291.536 52.6087L294.094 50.2202L295.507 50.2687L298.431 47.539L298.163 45.0534L307.665 36.1817ZM166.001 123.298L146.606 142.089L147.24 144.234L112.155 176.991L110.059 176.211L107.501 178.6L110.231 181.523L123.244 183.739L127.338 188.124L167.54 150.59L165.834 148.763L166.931 147.739L164.542 145.181L160.156 149.276L158.036 149.203L156.33 147.376L159.4 140.406L172.922 127.781L178.259 126.902L179.965 128.73L168.562 141.428L169.245 142.159L187.884 124.756C188.891 122.904 185.924 120.02 166.001 123.298ZM86.0175 237.648L109.042 216.151C110.657 214.644 113.188 214.73 114.696 216.345C116.203 217.96 116.117 220.491 114.502 221.999L91.477 243.496C89.8623 245.003 87.3311 244.916 85.8235 243.302C84.3159 241.687 84.4028 239.156 86.0175 237.648ZM195.601 229.735C187.551 233.421 180.709 210.12 178.295 198.01C177.45 196.644 181.296 192.064 183.167 190.04C183.366 189.825 183.287 189.893 183.143 190.03C176.791 187.31 175.281 183.791 175.295 182.341L178.949 178.929C185.81 168.693 194.122 173.2 197.42 176.733L203.103 206.998C206.438 217.017 204.608 221.554 203.276 222.569L195.601 229.735ZM226.918 100.625L223.264 104.037C222.86 104.414 222.838 105.047 223.215 105.451L223.897 106.182C224.274 106.585 224.907 106.607 225.311 106.23L228.966 102.818C229.369 102.441 229.391 101.808 229.014 101.405L228.332 100.674C227.955 100.27 227.322 100.248 226.918 100.625ZM215.223 111.544L218.878 108.132C219.282 107.755 219.914 107.777 220.291 108.181L220.974 108.912C221.351 109.315 221.329 109.948 220.925 110.325L217.27 113.737C216.867 114.114 216.234 114.092 215.857 113.689L215.175 112.958C214.798 112.554 214.819 111.921 215.223 111.544ZM210.837 115.639L207.183 119.051C206.779 119.428 206.757 120.061 207.134 120.464L207.817 121.195C208.194 121.599 208.826 121.621 209.23 121.244L212.885 117.832C213.288 117.455 213.31 116.822 212.933 116.418L212.251 115.687C211.874 115.284 211.241 115.262 210.837 115.639ZM199.142 126.558L202.797 123.146C203.201 122.769 203.834 122.79 204.21 123.194L204.893 123.925C205.27 124.329 205.248 124.962 204.844 125.339L201.19 128.751C200.786 129.128 200.153 129.106 199.776 128.702L199.094 127.971C198.717 127.568 198.739 126.935 199.142 126.558Z" fill="#C4C4C4"/>
<path d="M145.452 241.533C149.805 246.292 178.478 258.277 192.27 263.675C193.154 262.638 194.564 262.525 194.441 264.211L183.632 293.097C182.57 294.343 181.485 294.075 181.461 292.561C171.435 291.378 142.847 275.437 129.807 267.614L137.347 251.049L141.463 249.301L145.452 241.533Z" fill="#C4C4C4"/>
</svg>
