<svg width="187" height="209" viewBox="0 0 187 209" fill="none" xmlns="http://www.w3.org/2000/svg">
<path d="M97.8054 48.7867C98.2089 47.5302 100.967 43.173 102.548 41.1916C94.6981 41.1916 91.5909 8.00463 111.543 2.88624C127.504 -1.20847 137.927 9.87588 141.143 15.9299C164.17 15.4015 164.802 33.2113 162.24 42.1823C178.856 45.8807 179.303 61.8854 177.449 69.4254C171.888 67.1539 164.749 73.6234 161.095 81.8086C158.969 88.9083 158.315 97.2325 147.685 96.3382C137.055 95.4438 132.04 101.622 129.369 105.749C118.379 120.411 105.383 122.536 100.258 121.765C96.4295 116.559 92.5432 102.046 105.284 83.6248C101.585 85.0777 99.4112 79.7172 98.7866 76.8553C97.8034 68.522 97.2533 50.5057 97.8054 48.7867Z" fill="white"/>
<path d="M129.369 105.749C118.379 120.411 105.383 122.536 100.258 121.765C99.1137 122.976 96.8242 125.596 96.8242 126.388V136.79C97.2099 138.114 97.9741 140.019 99.0447 141.578V158.584C99.2332 160.54 100.016 163.453 101.76 165.519C99.5726 170.544 96.9259 179.757 99.3567 185.167C98.2945 189.185 98.8521 198.508 112.851 204.32C123.154 206.466 135.289 204.155 150.465 188.304C159.492 189.361 161.967 177.847 162.076 171.958C175.029 173.543 176.073 152.806 174.976 142.239C180.734 134.084 180.298 122.366 179.085 116.647C188.766 101.985 185.38 90.6144 182.477 86.7618C187.211 80.5842 182.223 70.2286 177.449 69.4254C171.888 67.1539 164.749 73.6234 161.095 81.8086C158.969 88.9083 158.315 97.2325 147.685 96.3382C137.055 95.4438 132.04 101.622 129.369 105.749Z" fill="white"/>
<path d="M100.258 121.765C105.383 122.536 118.379 120.411 129.369 105.749C132.04 101.622 137.055 95.4438 147.685 96.3382C158.315 97.2325 158.969 88.9083 161.095 81.8086C164.749 73.6234 171.888 67.1539 177.449 69.4254M100.258 121.765C96.4295 116.559 92.5432 102.046 105.284 83.6248M100.258 121.765C99.1137 122.976 96.8242 125.596 96.8242 126.388V136.79C97.2099 138.114 97.9741 140.019 99.0447 141.578M177.449 69.4254C179.303 61.8854 178.856 45.8807 162.24 42.1823M177.449 69.4254C182.223 70.2286 187.211 80.5842 182.477 86.7618M162.24 42.1823C164.802 33.2113 164.17 15.4015 141.143 15.9299C137.927 9.87588 127.504 -1.20847 111.543 2.88624C91.5909 8.00463 94.6981 41.1916 102.548 41.1916C100.967 43.173 98.2089 47.5302 97.8054 48.7867C97.2533 50.5057 97.8034 68.522 98.7866 76.8553C99.4112 79.7172 101.585 85.0777 105.284 83.6248M162.24 42.1823C158.035 41.1541 151.795 40.7296 148.702 43.5032M105.284 83.6248C106.147 82.3763 107.087 81.1099 108.108 79.8272M125.117 31.12C130.742 39.8377 128.115 47.6309 126.098 50.4378C137.48 57.8347 130.84 66.8386 126.098 70.416C130.316 80.9787 127.734 85.4712 123.481 86.7098M125.117 31.12C122.5 30.7347 117.594 28.4782 118.902 22.5343M125.117 31.12C125.989 30.0192 128.06 27.8838 129.369 28.148C131.004 28.4782 148.411 30.6246 148.702 43.5032M148.702 43.5032C146.663 45.332 145.992 48.5514 148.176 53.9051M115.795 86.2665C118.292 87.0873 121.14 87.3918 123.481 86.7098M123.481 86.7098C122.936 88.6534 122.173 92.8048 123.481 93.8615M106.473 91.7151C106.909 93.4763 108.403 97.1307 110.889 97.6591M110.889 97.6591C112.96 97.2188 117.103 97.593 117.103 102.612M110.889 97.6591C110.943 99.5853 110.365 104.396 107.618 108.226M138.363 45.3194C137.873 48.3464 138.077 53.5748 139.508 55.2259C140.653 56.5468 141.307 61.1699 139.508 63.3163M154.227 75.8646C156.68 74.4887 160.735 70.5481 157.334 65.793C155.698 63.8667 153.18 59.0895 156.189 55.3911M154.227 75.8646C154.935 77.1855 155.993 80.1905 154.554 81.6435M154.227 75.8646C144.29 72.6922 139.145 75.8414 136.743 79.9924M134.929 86.7618C134.948 84.7728 135.445 82.2362 136.743 79.9924M136.743 79.9924C137.883 81.9186 140.457 85.8042 141.634 85.9363M110.889 49.6122C112.906 52.0889 115.893 58.264 111.706 63.1512C110.433 64.6372 110.267 68.0715 112.36 69.2602M108.272 12.1324C108.301 13.7992 108.921 16.0679 110.725 17.1525M110.725 17.1525C112.257 18.0733 114.643 18.1404 118.248 16.2601M110.725 17.1525C109.689 20.2673 108.239 27.2894 110.725 29.7991C112.197 31.2851 112.688 39.3094 110.725 39.7057M122.663 9.49063C124.462 9.27049 128.387 10.3822 129.696 16.5903C129.914 18.0213 130.939 20.8502 133.293 20.7181M142.288 21.5436C145.123 21.5987 150.694 23.7231 150.302 31.7804M177.449 90.2291C179.738 89.417 181.372 88.2032 182.477 86.7618M182.477 86.7618C185.38 90.6144 188.766 101.985 179.085 116.647M179.085 116.647C177.504 117.197 174.211 119.487 173.688 124.242M179.085 116.647C180.298 122.366 180.734 134.084 174.976 142.239M170.417 146.862C172.251 145.543 173.753 143.971 174.976 142.239M174.976 142.239C176.073 152.806 175.029 173.543 162.076 171.958C161.967 177.847 159.492 189.361 150.465 188.304M150.465 188.304C135.289 204.155 123.154 206.466 112.851 204.32C98.8521 198.508 98.2945 189.185 99.3567 185.167M150.465 188.304C151.283 187.148 152.82 184.474 152.428 183.021M103.693 144.22C101.827 144.639 100.244 143.325 99.0447 141.578M99.0447 141.578V158.584C99.2332 160.54 100.016 163.453 101.76 165.519M108.599 167.831C105.458 168.44 103.256 167.291 101.76 165.519M101.76 165.519C99.5726 170.544 96.9259 179.757 99.3567 185.167M103.529 188.965C101.475 188.284 100.147 186.926 99.3567 185.167M164.366 96.008C165.959 96.5106 168.631 96.8296 170.744 95.8097M170.744 95.8097C172.101 95.1545 173.227 93.9468 173.688 91.8802M170.744 95.8097C171.344 98.4075 171.823 104.396 168.945 107.566M163.385 110.868C163.494 114.17 165.017 120.139 167.31 122.26C169.272 124.077 167.746 129.8 166.165 132.827M111.216 188.799C112.008 187.348 113.211 185.553 114.648 184.011M114.648 184.011C117.461 180.995 121.172 178.951 124.462 182.36M114.648 184.011C112.03 183.747 108.216 180.269 106.637 178.563M117.594 195.074C120.701 196.064 128.191 195.668 133.293 186.158C133.566 184.947 134.798 182.889 137.546 184.342M137.546 184.342C139.835 185.662 145.722 184.672 150.956 170.142M137.546 184.342V178.067M134.602 156.603C135.762 157.384 137.197 159.274 137.202 162.217M137.202 162.217C137.206 164.251 136.527 166.789 134.602 169.812M137.202 162.217C140.151 161.722 146.9 159.179 150.302 152.971C152.064 152.413 154.578 152.255 156.516 153.532M156.516 153.532C158.595 154.901 160.013 157.921 159.133 163.868M156.516 153.532C157.679 152.201 158.982 150.249 159.849 148.017M159.849 148.017C161.543 143.662 161.581 138.244 155.698 134.313M159.849 148.017C161.355 147.577 164.628 146.498 165.674 145.706M108.272 152.31C110.016 149.173 114.421 142.404 118.084 140.422C121.748 138.441 121.137 133.323 120.374 131.011M120.374 131.011C122.282 128.204 127.471 122.855 132.966 123.911M120.374 131.011C118.629 131.011 114.944 130.648 114.159 129.195M132.966 123.911C138.461 124.968 146.486 120.499 149.811 118.133M132.966 123.911C137 128.92 142.55 140.521 132.476 146.862M149.811 118.133H156.353M149.811 118.133C150.465 116.151 151.708 111.363 151.446 108.061M132.476 146.862C131.658 146.311 129.925 144.847 129.532 143.394M132.476 146.862C132.094 149.558 128.78 155.348 118.575 156.933C117.212 157.098 114.585 158.717 114.977 163.868" stroke="#F0A4A4" stroke-width="2" stroke-linecap="round" stroke-linejoin="round"/>
<path d="M91.5041 192V15.5C69.5041 -9.29995 51.6708 7.16671 45.5041 18.5C19.5041 24.5 11.3374 53.3334 10.5041 67C-10.2959 95.8 7.83743 127 19.5041 139C5.90409 163.8 25.1708 183 36.5041 189.5C59.7041 220.3 82.8374 204 91.5041 192Z" fill="white"/>
<path d="M49.5002 64.5C49.5002 66.8012 48.3043 68.8231 46.5002 69.9782C45.4899 70.625 44.2888 71 43.0002 71C42.1126 71 41.2666 70.8221 40.4958 70.5C38.1492 69.5194 36.5002 67.2023 36.5002 64.5C36.5002 63.9837 36.5604 63.4815 36.6741 63C37.3513 60.1333 39.9266 58 43.0002 58C45.3158 58 47.3487 59.2109 48.5 61.034C49.1335 62.0372 49.5002 63.2258 49.5002 64.5Z" fill="white"/>
<path d="M75.5002 27.5C75.5002 31.0899 72.59 34 69.0002 34C68.6601 34 68.326 33.9739 68 33.9235C64.885 33.4424 62.5002 30.7497 62.5002 27.5C62.5002 26.8022 62.6101 26.1301 62.8137 25.5C63.6572 22.8887 66.1081 21 69.0002 21C71.3158 21 73.3486 22.2109 74.5 24.034C75.1335 25.0372 75.5002 26.2258 75.5002 27.5Z" fill="white"/>
<path d="M72.5002 84.5C72.5002 85.5821 72.2357 86.6025 71.768 87.5C71.1517 88.6824 70.1825 89.6516 69 90.2679C68.1025 90.7356 67.0822 91 66.0002 91C63.1081 91 60.6572 89.1113 59.8137 86.5C59.6101 85.8699 59.5002 85.1978 59.5002 84.5C59.5002 83.226 59.8667 82.0377 60.5 81.0346C61.6513 79.2112 63.6843 78 66.0002 78C67.8435 78 69.5077 78.7673 70.6906 80C71.8114 81.1679 72.5002 82.7535 72.5002 84.5Z" fill="white"/>
<path d="M43.5002 133.5C43.5002 135.581 42.5219 137.434 41 138.624C39.8971 139.486 38.5086 140 37.0002 140C34.2978 140 31.9805 138.351 31 136.004C30.678 135.233 30.5002 134.387 30.5002 133.5C30.5002 130.25 32.885 127.558 36 127.076C36.326 127.026 36.6601 127 37.0002 127C39.3014 127 41.3233 128.196 42.4784 130C43.1252 131.01 43.5002 132.211 43.5002 133.5Z" fill="white"/>
<path d="M71.5002 199.5C71.5002 203.09 68.59 206 65.0002 206C61.4103 206 58.5002 203.09 58.5002 199.5C58.5002 198.984 58.5604 198.482 58.6741 198C59.3142 195.29 61.6503 193.236 64.5 193.019C64.6651 193.006 64.8319 193 65.0002 193C65.886 193 66.7305 193.177 67.5 193.498C69.4006 194.291 70.8442 195.96 71.3262 198C71.44 198.482 71.5002 198.984 71.5002 199.5Z" fill="white"/>
<path d="M62.5002 117C62.5002 117.703 62.3187 118.364 62 118.938C61.5261 119.792 60.7488 120.454 59.8137 120.779C59.4023 120.922 58.9603 121 58.5002 121C58.0401 121 57.5981 120.922 57.1867 120.779C56.5297 120.551 55.9507 120.156 55.5 119.646C54.8777 118.941 54.5002 118.014 54.5002 117C54.5002 116.271 54.695 115.588 55.0353 115C55.7269 113.804 57.0196 113 58.5002 113C58.9603 113 59.4023 113.078 59.8137 113.221C61.3776 113.764 62.5002 115.251 62.5002 117Z" fill="white"/>
<path d="M34.5002 100C34.5002 100.345 34.4564 100.68 34.3742 101C33.9301 102.725 32.364 104 30.5002 104C29.7971 104 29.1363 103.819 28.5622 103.5C27.3325 102.818 26.5002 101.506 26.5002 100C26.5002 98.494 27.3325 97.1824 28.5622 96.5C29.1363 96.1814 29.7971 96 30.5002 96C32.1789 96 33.616 97.0341 34.2094 98.5C34.3969 98.9632 34.5002 99.4696 34.5002 100Z" fill="white"/>
<path d="M93.5002 190C93.5002 192.209 91.7093 194 89.5002 194C87.8215 194 86.3843 192.966 85.7909 191.5C85.6034 191.037 85.5002 190.53 85.5002 190C85.5002 188.519 86.3046 187.227 87.5002 186.535C88.0885 186.195 88.7716 186 89.5002 186C91.7093 186 93.5002 187.791 93.5002 190Z" fill="white"/>
<path d="M42.5002 188C42.5002 188.53 42.3969 189.037 42.2094 189.5C41.616 190.966 40.1789 192 38.5002 192C36.291 192 34.5002 190.209 34.5002 188C34.5002 186.737 35.0856 185.611 36 184.877C36.6848 184.328 37.5542 184 38.5002 184C39.0306 184 39.5368 184.103 40 184.291C40.8298 184.627 41.5212 185.233 41.9651 186C42.3054 186.588 42.5002 187.271 42.5002 188Z" fill="white"/>
<path d="M62.5002 160C62.5002 161.506 61.6679 162.818 60.4382 163.5C59.8641 163.819 59.2033 164 58.5002 164C57.7971 164 57.1363 163.819 56.5622 163.5C55.3325 162.818 54.5002 161.506 54.5002 160C54.5002 158.737 55.0856 157.611 56 156.877C56.6848 156.328 57.5542 156 58.5002 156C60.7093 156 62.5002 157.791 62.5002 160Z" fill="white"/>
<path d="M83.5002 130C83.5002 131.864 82.2253 133.43 80.5 133.874C80.1804 133.956 79.8454 134 79.5002 134C77.291 134 75.5002 132.209 75.5002 130C75.5002 129.054 75.8285 128.185 76.3775 127.5C76.9101 126.836 77.6504 126.345 78.5 126.126C78.8197 126.044 79.1548 126 79.5002 126C80.2287 126 80.9117 126.195 81.5 126.535C82.6957 127.227 83.5002 128.519 83.5002 130Z" fill="white"/>
<path d="M11.5002 97C11.5002 99.2091 9.70933 101 7.50019 101C5.29105 101 3.50019 99.2091 3.50019 97C3.50019 94.7909 5.29105 93 7.50019 93C8.51463 93 9.44088 93.3776 10.146 94C10.9764 94.7329 11.5002 95.8053 11.5002 97Z" fill="white"/>
<path d="M26.5002 138C26.5002 139.864 25.2255 141.43 23.5004 141.874C23.1807 141.956 22.8456 142 22.5002 142C20.291 142 18.5002 140.209 18.5002 138C18.5002 136.136 19.7749 134.57 21.5 134.126C21.8197 134.044 22.1548 134 22.5002 134C22.8456 134 23.1807 134.044 23.5004 134.126C25.2255 134.57 26.5002 136.136 26.5002 138Z" fill="white"/>
<path d="M17.5002 67C17.5002 67.7286 17.3054 68.4117 16.9651 69C16.2734 70.1956 14.9808 71 13.5002 71C13.1548 71 12.8197 70.9562 12.5 70.8739C10.7749 70.4298 9.50019 68.8638 9.50019 67C9.50019 64.7909 11.291 63 13.5002 63C15.364 63 16.9301 64.2748 17.3742 66C17.4564 66.3196 17.5002 66.6547 17.5002 67Z" fill="white"/>
<path d="M87.5002 164C87.5002 165.864 86.2253 167.43 84.5 167.874C84.1804 167.956 83.8454 168 83.5002 168C82.9697 168 82.4633 167.897 82 167.709C80.5342 167.116 79.5002 165.679 79.5002 164C79.5002 163.831 79.5107 163.664 79.5311 163.5C79.7355 161.861 80.9318 160.53 82.5003 160.126C82.8199 160.044 83.1549 160 83.5002 160C83.8454 160 84.1804 160.044 84.5 160.126C86.2253 160.57 87.5002 162.136 87.5002 164Z" fill="white"/>
<path d="M50.5002 21C50.5002 23.2091 48.7093 25 46.5002 25C44.9942 25 43.6826 24.1677 43.0002 22.938C42.6816 22.3639 42.5002 21.7031 42.5002 21C42.5002 18.7909 44.291 17 46.5002 17C48.7093 17 50.5002 18.7909 50.5002 21Z" fill="white"/>
<path d="M91.5002 17C91.5002 19.2091 89.7093 21 87.5002 21C85.8215 21 84.3844 19.9659 83.791 18.5C83.6034 18.0368 83.5002 17.5305 83.5002 17C83.5002 14.7909 85.291 13 87.5002 13C89.7093 13 91.5002 14.7909 91.5002 17Z" fill="white"/>
<path d="M93.5002 93C93.5002 95.2091 91.7093 97 89.5002 97C87.291 97 85.5002 95.2091 85.5002 93C85.5002 92.8307 85.5107 92.6638 85.5311 92.5C85.7355 90.8609 86.9316 89.5298 88.5 89.1261C88.8197 89.0438 89.1548 89 89.5002 89C91.7093 89 93.5002 90.7909 93.5002 93Z" fill="white"/>
<path d="M66.5002 47C66.5002 47.7031 66.3188 48.3639 66.0002 48.938C65.6364 49.5936 65.0938 50.1362 64.4382 50.5C63.8641 50.8186 63.2033 51 62.5002 51C61.4661 51 60.5237 50.6076 59.8137 49.9636C59.0069 49.2318 58.5002 48.1751 58.5002 47C58.5002 45.9857 58.8777 45.0595 59.5 44.3544C60.2329 43.5238 61.3054 43 62.5002 43C63.2033 43 63.8641 43.1814 64.4382 43.5C65.6679 44.1824 66.5002 45.494 66.5002 47Z" fill="white"/>
<path d="M84.5002 59.5C84.5002 60.9136 83.8484 62.175 82.8288 63C82.056 63.6254 81.0718 64 80.0002 64C79.4742 64 78.9692 63.9097 78.5 63.7439C76.7523 63.1261 75.5002 61.4593 75.5002 59.5C75.5002 58.5004 75.8261 57.5769 76.3775 56.83C77.197 55.72 78.5145 55 80.0002 55C80.5261 55 81.0309 55.0902 81.5 55.256C83.2479 55.8737 84.5002 57.5406 84.5002 59.5Z" fill="white"/>
<path d="M66.0002 78L64.4382 50.5M66.0002 78C63.6843 78 61.6513 79.2112 60.5 81.0346M66.0002 78C67.8435 78 69.5077 78.7673 70.6906 80M37.0002 140C38.5086 140 39.8971 139.486 41 138.624M37.0002 140C34.2978 140 31.9805 138.351 31 136.004M37.0002 140L40 184.291M30.5002 104C32.364 104 33.9301 102.725 34.3742 101M30.5002 104L36 127.076M30.5002 104C29.7971 104 29.1363 103.819 28.5622 103.5M30.5002 96C32.1789 96 33.616 97.0341 34.2094 98.5M30.5002 96L40.4958 70.5M30.5002 96C29.7971 96 29.1363 96.1814 28.5622 96.5M62.5002 160C62.5002 157.791 60.7093 156 58.5002 156M62.5002 160C62.5002 161.506 61.6679 162.818 60.4382 163.5M62.5002 160L79.5311 163.5M58.5002 156L57.1867 120.779M58.5002 156C57.5542 156 56.6848 156.328 56 156.877M7.50019 101C9.70933 101 11.5002 99.2091 11.5002 97C11.5002 95.8053 10.9764 94.7329 10.146 94M7.50019 101C5.29105 101 3.50019 99.2091 3.50019 97C3.50019 94.7909 5.29105 93 7.50019 93C8.51463 93 9.44088 93.3776 10.146 94M7.50019 101L21.5 134.126M26.5002 138C26.5002 136.136 25.2255 134.57 23.5004 134.126M26.5002 138L31 136.004M26.5002 138C26.5002 139.864 25.2255 141.43 23.5004 141.874M50.5002 21C50.5002 23.2091 48.7093 25 46.5002 25M50.5002 21C50.5002 18.7909 48.7093 17 46.5002 17C44.291 17 42.5002 18.7909 42.5002 21C42.5002 21.7031 42.6816 22.3639 43.0002 22.938M50.5002 21L62.8137 25.5M46.5002 25L59.5 44.3544M46.5002 25C44.9942 25 43.6826 24.1677 43.0002 22.938M89.5002 97C91.7093 97 93.5002 95.2091 93.5002 93C93.5002 90.7909 91.7093 89 89.5002 89C89.1548 89 88.8197 89.0438 88.5 89.1261M89.5002 97C87.291 97 85.5002 95.2091 85.5002 93C85.5002 92.8307 85.5107 92.6638 85.5311 92.5M89.5002 97L81.5 126.535M62.8137 25.5C62.6101 26.1301 62.5002 26.8022 62.5002 27.5C62.5002 30.7497 64.885 33.4424 68 33.9235M62.8137 25.5C63.6572 22.8887 66.1081 21 69.0002 21C71.3158 21 73.3487 22.2109 74.5 24.034M74.5 24.034C75.1335 25.0372 75.5002 26.2258 75.5002 27.5C75.5002 31.0899 72.59 34 69.0002 34C68.6601 34 68.326 33.9739 68 33.9235M74.5 24.034L83.791 18.5M83.791 18.5C84.3844 19.9659 85.8215 21 87.5002 21C89.7093 21 91.5002 19.2091 91.5002 17C91.5002 14.7909 89.7093 13 87.5002 13C85.291 13 83.5002 14.7909 83.5002 17C83.5002 17.5305 83.6034 18.0368 83.791 18.5ZM68 33.9235L64.4382 43.5M64.4382 43.5C63.8641 43.1814 63.2033 43 62.5002 43C61.3054 43 60.2329 43.5238 59.5 44.3544M64.4382 43.5C65.6679 44.1824 66.5002 45.494 66.5002 47C66.5002 47.7031 66.3188 48.3639 66.0002 48.938M59.5 44.3544C58.8777 45.0595 58.5002 45.9857 58.5002 47C58.5002 48.1751 59.0069 49.2318 59.8137 49.9636M43.0002 22.938L41 58M64.4382 50.5C63.8641 50.8186 63.2033 51 62.5002 51C61.4661 51 60.5237 50.6076 59.8137 49.9636M64.4382 50.5C65.0938 50.1362 65.6364 49.5936 66.0002 48.938M46.5002 69.9782C48.3043 68.8231 49.5002 66.8012 49.5002 64.5C49.5002 63.2258 49.1335 62.0372 48.5 61.034M46.5002 69.9782C45.4899 70.625 44.2888 71 43.0002 71C42.1126 71 41.2666 70.8221 40.4958 70.5M46.5002 69.9782L60.5 81.0346M60.5 81.0346C59.8667 82.0377 59.5002 83.226 59.5002 84.5C59.5002 85.1978 59.6101 85.8699 59.8137 86.5M71.768 87.5C72.2358 86.6025 72.5002 85.5821 72.5002 84.5C72.5002 82.7535 71.8114 81.1679 70.6906 80M71.768 87.5L85.5311 92.5M71.768 87.5C71.1517 88.6824 70.1825 89.6516 69 90.2679M85.5311 92.5C85.7355 90.8609 86.9316 89.5298 88.5 89.1261M59.8137 86.5C60.6572 89.1113 63.1081 91 66.0002 91C67.0822 91 68.1025 90.7356 69 90.2679M59.8137 86.5L34.2094 98.5M34.2094 98.5C34.3969 98.9632 34.5002 99.4695 34.5002 100C34.5002 100.345 34.4564 100.68 34.3742 101M40.4958 70.5C38.1492 69.5194 36.5002 67.2023 36.5002 64.5C36.5002 63.9837 36.5604 63.4815 36.6741 63M16.9651 69C17.3054 68.4117 17.5002 67.7286 17.5002 67C17.5002 66.6547 17.4564 66.3196 17.3742 66M16.9651 69C16.2734 70.1956 14.9808 71 13.5002 71C13.1548 71 12.8197 70.9562 12.5 70.8739M16.9651 69L28.5622 96.5M28.5622 96.5C27.3325 97.1824 26.5002 98.494 26.5002 100C26.5002 101.506 27.3325 102.818 28.5622 103.5M12.5 70.8739C10.7749 70.4298 9.50019 68.8638 9.50019 67C9.50019 64.7909 11.291 63 13.5002 63C15.364 63 16.9301 64.2748 17.3742 66M12.5 70.8739L10.146 94M17.3742 66L36.6741 63M36.6741 63C37.3513 60.1333 39.9266 58 43.0002 58C45.3158 58 47.3487 59.2109 48.5 61.034M48.5 61.034L59.8137 49.9636M64 91L59.8137 113.221M59.8137 113.221C59.4023 113.078 58.9603 113 58.5002 113C57.0196 113 55.7269 113.804 55.0353 115M59.8137 113.221C61.3776 113.764 62.5002 115.251 62.5002 117C62.5002 117.703 62.3187 118.364 62 118.938M69 90.2679L78.5 126.126M78.5 126.126C78.8197 126.044 79.1548 126 79.5002 126C80.2287 126 80.9117 126.195 81.5 126.535M78.5 126.126C77.6504 126.345 76.9101 126.836 76.3775 127.5M81.5 126.535C82.6957 127.227 83.5002 128.519 83.5002 130C83.5002 131.864 82.2253 133.43 80.5 133.874M62 118.938L76.3775 127.5M62 118.938C61.5261 119.792 60.7488 120.454 59.8137 120.779M76.3775 127.5C75.8285 128.185 75.5002 129.054 75.5002 130C75.5002 132.209 77.291 134 79.5002 134C79.8454 134 80.1804 133.956 80.5 133.874M80.5 133.874L84.5 160.126M84.5 160.126C84.1804 160.044 83.8454 160 83.5002 160C83.1549 160 82.8199 160.044 82.5003 160.126M84.5 160.126C86.2253 160.57 87.5002 162.136 87.5002 164C87.5002 165.864 86.2253 167.43 84.5 167.874M59.8137 120.779C59.4023 120.922 58.9603 121 58.5002 121C58.0401 121 57.5981 120.922 57.1867 120.779M59.8137 120.779L82.5003 160.126M82.5003 160.126C80.9318 160.53 79.7355 161.861 79.5311 163.5M57.1867 120.779C56.5297 120.551 55.9507 120.156 55.5 119.646M41 138.624C42.5219 137.434 43.5002 135.581 43.5002 133.5C43.5002 132.211 43.1252 131.01 42.4784 130M41 138.624L56 156.877M56 156.877C55.0856 157.611 54.5002 158.737 54.5002 160C54.5002 161.506 55.3325 162.818 56.5622 163.5M42.4784 130C41.3233 128.196 39.3014 127 37.0002 127C36.6601 127 36.326 127.026 36 127.076M42.4784 130L55.5 119.646M55.5 119.646C54.8777 118.941 54.5002 118.014 54.5002 117C54.5002 116.271 54.695 115.588 55.0353 115M34.3742 101L55.0353 115M36 127.076C32.885 127.558 30.5002 130.25 30.5002 133.5C30.5002 134.387 30.678 135.233 31 136.004M21.5 134.126C19.7749 134.57 18.5002 136.136 18.5002 138C18.5002 140.209 20.291 142 22.5002 142C22.8456 142 23.1807 141.956 23.5004 141.874M21.5 134.126C21.8197 134.044 22.1548 134 22.5002 134C22.8456 134 23.1807 134.044 23.5004 134.126M23.5004 134.126L28.5622 103.5M23.5004 141.874L36 184.877M36 184.877C35.0856 185.611 34.5002 186.737 34.5002 188C34.5002 190.209 36.291 192 38.5002 192C40.1789 192 41.616 190.966 42.2094 189.5M36 184.877C36.6848 184.328 37.5542 184 38.5002 184C39.0306 184 39.5368 184.103 40 184.291M56.5622 163.5C57.1363 163.819 57.7971 164 58.5002 164C59.2033 164 59.8641 163.819 60.4382 163.5M56.5622 163.5L41.9651 186M41.9651 186C42.3054 186.588 42.5002 187.271 42.5002 188C42.5002 188.53 42.3969 189.037 42.2094 189.5M41.9651 186C41.5212 185.233 40.8298 184.627 40 184.291M42.2094 189.5L58.6741 198M58.6741 198C58.5604 198.482 58.5002 198.984 58.5002 199.5C58.5002 203.09 61.4103 206 65.0002 206C68.59 206 71.5002 203.09 71.5002 199.5C71.5002 198.984 71.44 198.482 71.3262 198M58.6741 198C59.3142 195.29 61.6503 193.236 64.5 193.019M71.3262 198L85.7909 191.5M71.3262 198C70.8442 195.96 69.4006 194.291 67.5 193.498M85.7909 191.5C86.3843 192.966 87.8215 194 89.5002 194C91.7093 194 93.5002 192.209 93.5002 190C93.5002 187.791 91.7093 186 89.5002 186C88.7716 186 88.0885 186.195 87.5002 186.535M85.7909 191.5C85.6034 191.037 85.5002 190.53 85.5002 190C85.5002 188.519 86.3046 187.227 87.5002 186.535M87.5002 186.535L84.5 167.874M84.5 167.874C84.1804 167.956 83.8454 168 83.5002 168C82.9697 168 82.4633 167.897 82 167.709M60.4382 163.5L64.5 193.019M64.5 193.019C64.6651 193.006 64.8319 193 65.0002 193C65.886 193 66.7305 193.177 67.5 193.498M67.5 193.498L82 167.709M82 167.709C80.5342 167.116 79.5002 165.679 79.5002 164C79.5002 163.831 79.5107 163.664 79.5311 163.5M66.0002 48.938L76.3775 56.83M76.3775 56.83C75.8261 57.5769 75.5002 58.5004 75.5002 59.5C75.5002 61.4593 76.7523 63.1261 78.5 63.7439M76.3775 56.83C77.197 55.72 78.5145 55 80.0002 55C80.5261 55 81.0309 55.0902 81.5 55.256M70.6906 80L78.5 63.7439M78.5 63.7439C78.9692 63.9097 79.4742 64 80.0002 64C81.0718 64 82.056 63.6254 82.8288 63M82.8288 63C83.8483 62.175 84.5002 60.9136 84.5002 59.5C84.5002 57.5406 83.2479 55.8737 81.5 55.256M82.8288 63L88.5 89.1261M81.5 55.256L87.5002 22M91.5041 15.5V192C82.8374 204 59.7041 220.3 36.5041 189.5C25.1708 183 5.90409 163.8 19.5041 139C7.83743 127 -10.2959 95.8 10.5041 67C11.3374 53.3334 19.5041 24.5 45.5041 18.5C51.6708 7.16671 69.5041 -9.29995 91.5041 15.5Z" stroke="#F0A4A4" stroke-width="2"/>
</svg>
