<svg width="234" height="205" viewBox="0 0 234 205" fill="none" xmlns="http://www.w3.org/2000/svg">
<path fill-rule="evenodd" clip-rule="evenodd" d="M71.1401 152V158.745H55.7585H47.1063L27.8792 168.864L0 184.282V205H199V200.182V152H71.1401ZM143.242 156.818H85.0797V165.009H143.242V156.818ZM193.232 156.818H188.906V198.255H193.232V156.818ZM6.72947 184.282H123.534L153.816 168.864H36.5314L6.72947 184.282ZM123.534 200.182H6.72947V188.618H123.534V200.182Z" fill="white"/>
<path fill-rule="evenodd" clip-rule="evenodd" d="M52 16.3419V132.658C52 144.674 62.0844 149 72.1689 149H166.29C170.9 149 171.092 145.606 171.092 141.338V8.65165C171.092 3.83119 166.29 2.61143e-07 163.409 0H68.3272C59.3099 0 52 7.31653 52 16.3419ZM55.8417 16.3419C55.8417 10.5742 60.1636 3.84516 68.3272 3.84516H146.121C159.567 3.84516 159.567 13.9387 159.567 19.2258V131.697C159.567 143.232 152.844 145.155 146.121 145.155H72.1689C59.1071 145.155 55.6816 137.294 55.8417 132.658V16.3419Z" fill="white"/>
<path d="M116.348 120.161H148.042C148.573 120.161 149.003 120.592 149.003 121.122V123.045C149.003 123.576 148.573 124.006 148.042 124.006H116.348C115.818 124.006 115.388 123.576 115.388 123.045V121.122C115.388 120.592 115.818 120.161 116.348 120.161Z" fill="white"/>
<path d="M73.1293 125.929H78.8918C79.9527 125.929 80.8127 126.79 80.8127 127.851V133.619C80.8127 134.681 79.9527 135.542 78.8918 135.542H73.1293C72.0684 135.542 71.2084 134.681 71.2084 133.619V127.851C71.2084 126.79 72.0684 125.929 73.1293 125.929Z" fill="white"/>
<path fill-rule="evenodd" clip-rule="evenodd" d="M155.726 19.2258C155.726 13.3859 151.956 7.69031 146.121 7.69031H68.3272C62.4925 7.69031 59.6834 10.502 59.6834 16.3419V93.245C59.6834 97.0902 60.1636 100.935 68.3272 100.935H146.121C148.522 100.935 155.726 100.935 155.726 93.245V19.2258Z" fill="white"/>
<path fill-rule="evenodd" clip-rule="evenodd" d="M231.661 43.6946L210.427 8.39368C207.474 3.48332 202.27 6.98275e-05 196.544 6.98275e-05L169.652 5.65811e-07C172.533 7.9867e-06 177.335 3.84516 177.335 8.65156V141.338C177.335 145.606 176.577 148.966 172.612 149H200.385C204.251 149 207.286 148.107 210.236 145.606L228.229 130.343C231.889 127.238 234 122.679 234 117.876V52.1234C234 49.1532 233.191 46.2392 231.661 43.6946ZM194.142 124.968V97.0902C194.142 96.0283 193.282 95.1676 192.222 95.1676C191.161 95.1676 190.301 96.0283 190.301 97.0902V124.968C190.301 126.029 191.161 126.89 192.222 126.89C193.282 126.89 194.142 126.029 194.142 124.968ZM200.865 121.122V93.245C200.865 92.1832 200.005 91.3224 198.945 91.3224C197.884 91.3224 197.024 92.1832 197.024 93.245V121.122C197.024 122.184 197.884 123.045 198.945 123.045C200.005 123.045 200.865 122.184 200.865 121.122ZM207.588 124.968V97.0902C207.588 96.0283 206.728 95.1676 205.668 95.1676C204.607 95.1676 203.747 96.0283 203.747 97.0902V124.968C203.747 126.029 204.607 126.89 205.668 126.89C206.728 126.89 207.588 126.029 207.588 124.968Z" fill="white"/>
</svg>
