<svg width="144" height="143" viewBox="0 0 144 143" fill="none" xmlns="http://www.w3.org/2000/svg">
<path d="M72.0318 34.8887C51.8729 34.8887 35.6126 51.2206 35.6126 71.4682C35.6126 91.7159 51.8729 108.048 72.0318 108.048C92.1907 108.048 108.451 91.7159 108.451 71.4682C108.451 51.2206 92.1907 34.8887 72.0318 34.8887ZM72.0318 95.2496C59.0046 95.2496 48.3545 84.5846 48.3545 71.4682C48.3545 58.3518 58.9729 47.6868 72.0318 47.6868C85.0907 47.6868 95.709 58.3518 95.709 71.4682C95.709 84.5846 85.059 95.2496 72.0318 95.2496ZM118.435 33.3924C118.435 38.136 114.632 41.9245 109.941 41.9245C105.218 41.9245 101.446 38.1041 101.446 33.3924C101.446 28.6807 105.25 24.8604 109.941 24.8604C114.632 24.8604 118.435 28.6807 118.435 33.3924ZM142.556 42.0518C142.018 30.6227 139.418 20.4989 131.082 12.1579C122.778 3.81684 112.698 1.2063 101.319 0.633252C89.5916 -0.0353027 54.4403 -0.0353027 42.7126 0.633252C31.3653 1.17446 21.2858 3.78501 12.9496 12.126C4.61348 20.467 2.04607 30.5909 1.47554 42.02C0.809912 53.7993 0.809912 89.1053 1.47554 100.885C2.01438 112.314 4.61348 122.438 12.9496 130.779C21.2858 139.12 31.3336 141.73 42.7126 142.303C54.4403 142.972 89.5916 142.972 101.319 142.303C112.698 141.762 122.778 139.151 131.082 130.779C139.387 122.438 141.986 112.314 142.556 100.885C143.222 89.1053 143.222 53.8311 142.556 42.0518ZM127.405 113.523C124.933 119.763 120.147 124.571 113.903 127.086C104.552 130.81 82.3648 129.951 72.0318 129.951C61.6987 129.951 39.4796 130.779 30.1608 127.086C23.9483 124.602 19.1621 119.795 16.6581 113.523C12.9496 104.132 13.8054 81.8467 13.8054 71.4682C13.8054 61.0897 12.9813 38.7727 16.6581 29.4129C19.1304 23.1731 23.9166 18.3659 30.1608 15.8508C39.5112 12.126 61.6987 12.9856 72.0318 12.9856C82.3648 12.9856 104.584 12.1579 113.903 15.8508C120.115 18.334 124.901 23.1413 127.405 29.4129C131.114 38.8045 130.258 61.0897 130.258 71.4682C130.258 81.8467 131.114 104.164 127.405 113.523Z" fill="#3D453B"/>
</svg>
